<?xml version="1.0" standalone="no"?>
<!DOCTYPE svg PUBLIC "-//W3C//DTD SVG 20010904//EN"
 "http://www.w3.org/TR/2001/REC-SVG-20010904/DTD/svg10.dtd">
<svg version="1.0" xmlns="http://www.w3.org/2000/svg"
 width="48.000000pt" height="48.000000pt" viewBox="0 0 48.000000 48.000000"
 preserveAspectRatio="xMidYMid meet">

<g transform="translate(0.000000,48.000000) scale(0.100000,-0.100000)"
fill="#000000" stroke="none">
<path d="M159 453 c-5 -16 -12 -34 -14 -40 -3 -8 -21 -13 -45 -13 -31 0 -40
-4 -40 -17 0 -30 20 -297 26 -340 l5 -43 149 0 149 0 5 53 c6 54 26 311 26
334 0 9 -14 13 -40 13 -38 0 -41 3 -56 40 l-16 40 -69 0 c-67 0 -70 -1 -80
-27z m141 -12 c19 -36 12 -41 -60 -41 -72 0 -79 5 -60 41 8 15 21 19 60 19 39
0 52 -4 60 -19z m96 -83 c-3 -13 -7 -68 -11 -123 -3 -55 -8 -126 -12 -157 l-6
-58 -127 0 -128 0 -6 53 c-3 28 -8 95 -11 147 -3 52 -8 110 -11 128 l-5 32
161 0 160 0 -4 -22z"/>
<path d="M137 323 c-8 -16 16 -244 25 -241 12 4 12 1 3 130 -6 96 -16 134 -28
111z"/>
<path d="M195 193 c8 -89 13 -113 25 -113 6 0 8 30 4 78 -7 89 -10 102 -24
102 -7 0 -9 -23 -5 -67z"/>
</g>
</svg>
